<svg width="24" height="24" viewBox="0 0 24 24" fill="none" xmlns="http://www.w3.org/2000/svg">
<path d="M0 1.63636C0 0.732625 0.732625 0 1.63636 0H4.90909C5.81283 0 6.54545 0.732625 6.54545 1.63636V4.90909C6.54545 5.81283 5.81283 6.54545 4.90909 6.54545H1.63636C0.732625 6.54545 0 5.81283 0 4.90909V1.63636Z" fill="#D9D9D9"/>
<path d="M8.72727 1.63636C8.72727 0.732625 9.4599 0 10.3636 0H13.6364C14.5401 0 15.2727 0.732625 15.2727 1.63636V4.90909C15.2727 5.81283 14.5401 6.54545 13.6364 6.54545H10.3636C9.4599 6.54545 8.72727 5.81283 8.72727 4.90909V1.63636Z" fill="#D9D9D9"/>
<path d="M8.72727 19.0909C8.72727 18.1872 9.4599 17.4545 10.3636 17.4545H13.6364C14.5401 17.4545 15.2727 18.1872 15.2727 19.0909V22.3636C15.2727 23.2674 14.5401 24 13.6364 24H10.3636C9.4599 24 8.72727 23.2674 8.72727 22.3636V19.0909Z" fill="#D9D9D9"/>
<path d="M8.72727 10.3636C8.72727 9.4599 9.4599 8.72727 10.3636 8.72727H13.6364C14.5401 8.72727 15.2727 9.4599 15.2727 10.3636V13.6364C15.2727 14.5401 14.5401 15.2727 13.6364 15.2727H10.3636C9.4599 15.2727 8.72727 14.5401 8.72727 13.6364V10.3636Z" fill="#D9D9D9"/>
<path d="M17.4545 10.3636C17.4545 9.4599 18.1872 8.72727 19.0909 8.72727H22.3636C23.2674 8.72727 24 9.4599 24 10.3636V13.6364C24 14.5401 23.2674 15.2727 22.3636 15.2727H19.0909C18.1872 15.2727 17.4545 14.5401 17.4545 13.6364V10.3636Z" fill="#D9D9D9"/>
<path d="M17.4545 19.0909C17.4545 18.1872 18.1872 17.4545 19.0909 17.4545H22.3636C23.2674 17.4545 24 18.1872 24 19.0909V22.3636C24 23.2674 23.2674 24 22.3636 24H19.0909C18.1872 24 17.4545 23.2674 17.4545 22.3636V19.0909Z" fill="#D9D9D9"/>
<path d="M0 19.0909C0 18.1872 0.732625 17.4545 1.63636 17.4545H4.90909C5.81283 17.4545 6.54545 18.1872 6.54545 19.0909V22.3636C6.54545 23.2674 5.81283 24 4.90909 24H1.63636C0.732625 24 0 23.2674 0 22.3636V19.0909Z" fill="#D9D9D9"/>
<path d="M0 10.3636C0 9.4599 0.732625 8.72727 1.63636 8.72727H4.90909C5.81283 8.72727 6.54545 9.4599 6.54545 10.3636V13.6364C6.54545 14.5401 5.81283 15.2727 4.90909 15.2727H1.63636C0.732625 15.2727 0 14.5401 0 13.6364V10.3636Z" fill="#D9D9D9"/>
<path d="M17.4545 1.63636C17.4545 0.732625 18.1872 0 19.0909 0H22.3636C23.2674 0 24 0.732625 24 1.63636V4.90909C24 5.81283 23.2674 6.54545 22.3636 6.54545H19.0909C18.1872 6.54545 17.4545 5.81283 17.4545 4.90909V1.63636Z" fill="#D9D9D9"/>
</svg>
