<svg width="27" height="26" viewBox="0 0 27 26" fill="none" xmlns="http://www.w3.org/2000/svg">
<path d="M1 22V4C1 2.34315 2.34315 1 4 1H17C18.6569 1 20 2.34315 20 4V22C20 23.6569 18.6569 25 17 25H4C2.34315 25 1 23.6569 1 22Z" fill="black"/>
<path d="M23 20.5V5.5C23 4.67157 23.6716 4 24.5 4C25.3284 4 26 4.67157 26 5.5V20.5C26 21.3284 25.3284 22 24.5 22C23.6716 22 23 21.3284 23 20.5Z" fill="black"/>
<path d="M1 22V4C1 2.34315 2.34315 1 4 1H17C18.6569 1 20 2.34315 20 4V22C20 23.6569 18.6569 25 17 25H4C2.34315 25 1 23.6569 1 22Z" stroke="black" stroke-width="2" stroke-linecap="round"/>
<path d="M23 20.5V5.5C23 4.67157 23.6716 4 24.5 4C25.3284 4 26 4.67157 26 5.5V20.5C26 21.3284 25.3284 22 24.5 22C23.6716 22 23 21.3284 23 20.5Z" stroke="black" stroke-width="2" stroke-linecap="round"/>
</svg>
